<?xml version="1.0" encoding="utf-8"?>
<!-- Generator: Adobe Illustrator 17.0.0, SVG Export Plug-In . SVG Version: 6.00 Build 0)  -->
<!DOCTYPE svg PUBLIC "-//W3C//DTD SVG 1.1//EN" "http://www.w3.org/Graphics/SVG/1.1/DTD/svg11.dtd">
<svg version="1.1" id="图层_1" xmlns="http://www.w3.org/2000/svg" xmlns:xlink="http://www.w3.org/1999/xlink" x="0px" y="0px"
	 width="595.28px" height="198.946px" viewBox="338.072 273.343 595.28 198.946"
	 enable-background="new 338.072 273.343 595.28 198.946" xml:space="preserve">
<g opacity="0.1">
	<circle id="Oval-Copy-56_55_" fill="#3C96E6" cx="673.222" cy="292.536" r="2.923"/>
	<circle id="Oval-Copy-55_61_" fill="#3C96E6" cx="688.81" cy="292.536" r="2.923"/>
	<circle id="Oval-Copy-54_65_" fill="#3C96E6" cx="704.398" cy="292.536" r="2.923"/>
	<circle id="Oval-Copy-53_65_" fill="#3C96E6" cx="719.987" cy="292.536" r="2.923"/>
	<circle id="Oval-Copy-52_65_" fill="#3C96E6" cx="735.575" cy="292.536" r="2.923"/>
	<circle id="Oval-Copy-50_71_" fill="#3C96E6" cx="766.752" cy="292.536" r="2.923"/>
	<circle id="Oval-Copy-49_75_" fill="#3C96E6" cx="782.34" cy="292.536" r="2.923"/>
	<circle id="Oval-Copy-48_67_" fill="#3C96E6" cx="797.929" cy="292.536" r="2.923"/>
	<circle id="Oval-Copy-47_65_" fill="#3C96E6" cx="813.517" cy="292.536" r="2.923"/>
	<circle id="Oval-Copy-46_57_" fill="#3C96E6" cx="829.105" cy="292.536" r="2.923"/>
	<circle id="Oval-Copy-45_57_" fill="#3C96E6" cx="844.694" cy="292.536" r="2.923"/>
	<circle id="Oval-Copy-44_47_" fill="#3C96E6" cx="860.282" cy="292.536" r="2.923"/>
	<circle id="Oval-Copy-41_15_" fill="#3C96E6" cx="907.047" cy="292.536" r="2.923"/>
	<circle id="Oval-Copy-55_60_" fill="#00386C" cx="696.604" cy="367.555" r="2.923"/>
	<circle id="Oval-Copy-52_64_" fill="#3C96E6" cx="743.369" cy="367.555" r="2.923"/>
	<circle id="Oval-Copy-51_86_" fill="#3C96E6" cx="758.958" cy="367.555" r="2.923"/>
	<circle id="Oval-Copy-49_74_" fill="#3C96E6" cx="790.134" cy="367.555" r="2.923"/>
	<circle id="Oval-Copy-47_64_" fill="#E6501E" cx="821.311" cy="367.555" r="2.923"/>
	<circle id="Oval-Copy-58_25_" fill="#3C96E6" cx="649.839" cy="281.819" r="2.923"/>
	<circle id="Oval-Copy-57_28_" fill="#3C96E6" cx="665.428" cy="281.819" r="2.923"/>
	<circle id="Oval-Copy-56_29_" fill="#3C96E6" cx="681.016" cy="281.819" r="2.923"/>
	<circle id="Oval-Copy-55_34_" fill="#3C96E6" cx="696.604" cy="281.819" r="2.923"/>
	<circle id="Oval-Copy-54_39_" fill="#3C96E6" cx="712.193" cy="281.819" r="2.923"/>
	<circle id="Oval-Copy-53_39_" fill="#3C96E6" cx="727.781" cy="281.819" r="2.923"/>
	<circle id="Oval-Copy-50_46_" fill="#3C96E6" cx="774.546" cy="281.819" r="2.923"/>
	<circle id="Oval-Copy-49_49_" fill="#3C96E6" cx="790.134" cy="281.819" r="2.923"/>
	<circle id="Oval-Copy-47_38_" fill="#3C96E6" cx="821.311" cy="281.819" r="2.923"/>
	<circle id="Oval-Copy-46_33_" fill="#3C96E6" cx="836.899" cy="281.819" r="2.923"/>
	<circle id="Oval-Copy-45_35_" fill="#3C96E6" cx="852.488" cy="281.819" r="2.923"/>
	<circle id="Oval-Copy-43_17_" fill="#3C96E6" cx="883.664" cy="281.819" r="2.923"/>
	<circle id="Oval-Copy-40_7_" fill="#B0CEEB" cx="930.43" cy="281.819" r="2.923"/>
	<circle id="Oval-Copy-55_33_" fill="#3C96E6" cx="696.604" cy="303.253" r="2.923"/>
	<circle id="Oval-Copy-54_38_" fill="#E365A6" cx="712.193" cy="303.253" r="2.923"/>
	<circle id="Oval-Copy-53_38_" fill="#3C96E6" cx="727.781" cy="303.253" r="2.923"/>
	<circle id="Oval-Copy-52_37_" fill="#3C96E6" cx="743.369" cy="303.253" r="2.923"/>
	<circle id="Oval-Copy-51_59_" fill="#3C96E6" cx="758.958" cy="303.253" r="2.923"/>
	<circle id="Oval-Copy-50_45_" fill="#3C96E6" cx="774.546" cy="303.253" r="2.923"/>
	<circle id="Oval-Copy-49_48_" fill="#3C96E6" cx="790.134" cy="303.253" r="2.923"/>
	<circle id="Oval-Copy-48_40_" fill="#3C96E6" cx="805.723" cy="303.253" r="2.923"/>
	<circle id="Oval-Copy-47_37_" fill="#E6501E" cx="821.311" cy="303.253" r="2.923"/>
	<circle id="Oval-Copy-45_34_" fill="#3C96E6" cx="852.488" cy="303.253" r="2.923"/>
	<circle id="Oval-Copy-44_27_" fill="#5EEBA7" cx="868.076" cy="303.253" r="2.923"/>
	<circle id="Oval-Copy-55_32_" fill="#3C96E6" cx="688.81" cy="313.97" r="2.923"/>
	<circle id="Oval-Copy-54_37_" fill="#3C96E6" cx="704.398" cy="313.97" r="2.923"/>
	<circle id="Oval-Copy-53_37_" fill="#3C96E6" cx="719.987" cy="313.97" r="2.923"/>
	<circle id="Oval-Copy-52_36_" fill="#3C96E6" cx="735.575" cy="313.97" r="2.923"/>
	<circle id="Oval-Copy-51_58_" fill="#3C96E6" cx="751.164" cy="313.97" r="2.923"/>
	<circle id="Oval-Copy-50_44_" fill="#3C96E6" cx="766.752" cy="313.97" r="2.923"/>
	<circle id="Oval-Copy-49_47_" fill="#3C96E6" cx="782.34" cy="313.97" r="2.923"/>
	<circle id="Oval-Copy-48_39_" fill="#3C96E6" cx="797.929" cy="313.97" r="2.923"/>
	<circle id="Oval-Copy-47_36_" fill="#3C96E6" cx="813.517" cy="313.97" r="2.923"/>
	<circle id="Oval-Copy-46_32_" fill="#3C96E6" cx="829.105" cy="313.97" r="2.923"/>
	<circle id="Oval-Copy-45_33_" fill="#3C96E6" cx="844.694" cy="313.97" r="2.923"/>
	<circle id="Oval-Copy-44_26_" fill="#3C96E6" cx="860.282" cy="313.97" r="2.923"/>
	<circle id="Oval-Copy-42_9_" fill="#E6501E" cx="891.459" cy="313.97" r="2.923"/>
	<circle id="Oval-Copy-41_8_" fill="#3C96E6" cx="907.047" cy="313.97" r="2.923"/>
	<circle id="Oval-Copy-54_36_" fill="#3C96E6" cx="712.193" cy="324.687" r="2.923"/>
	<circle id="Oval-Copy-53_36_" fill="#E6501E" cx="727.781" cy="324.687" r="2.923"/>
	<circle id="Oval-Copy-52_35_" fill="#3C96E6" cx="743.369" cy="324.687" r="2.923"/>
	<circle id="Oval-Copy-51_57_" fill="#3C96E6" cx="758.958" cy="324.687" r="2.923"/>
	<circle id="Oval-Copy-50_43_" fill="#3C96E6" cx="774.546" cy="324.687" r="2.923"/>
	<circle id="Oval-Copy-49_46_" fill="#3C96E6" cx="790.134" cy="324.687" r="2.923"/>
	<circle id="Oval-Copy-48_38_" fill="#3C96E6" cx="805.723" cy="324.687" r="2.923"/>
	<circle id="Oval-Copy-47_35_" fill="#3C96E6" cx="821.311" cy="324.687" r="2.923"/>
	<circle id="Oval-Copy-46_31_" fill="#3C96E6" cx="836.899" cy="324.687" r="2.923"/>
	<circle id="Oval-Copy-45_32_" fill="#E365A6" cx="852.488" cy="324.687" r="2.923"/>
	<circle id="Oval-Copy-55_31_" fill="#3C96E6" cx="688.81" cy="335.404" r="2.923"/>
	<circle id="Oval-Copy-54_35_" fill="#3C96E6" cx="704.398" cy="335.404" r="2.923"/>
	<circle id="Oval-Copy-53_35_" fill="#3C96E6" cx="719.987" cy="335.404" r="2.923"/>
	<circle id="Oval-Copy-52_34_" fill="#3C96E6" cx="735.575" cy="335.404" r="2.923"/>
	<circle id="Oval-Copy-51_56_" fill="#3C96E6" cx="751.164" cy="335.404" r="2.923"/>
	<circle id="Oval-Copy-50_42_" fill="#3C96E6" cx="766.752" cy="335.404" r="2.923"/>
	<circle id="Oval-Copy-49_45_" fill="#3C96E6" cx="782.34" cy="335.404" r="2.923"/>
	<circle id="Oval-Copy-47_34_" fill="#3C96E6" cx="813.517" cy="335.404" r="2.923"/>
	<circle id="Oval-Copy-46_30_" fill="#3C96E6" cx="829.105" cy="335.404" r="2.923"/>
	<circle id="Oval-Copy-45_31_" fill="#3C96E6" cx="844.694" cy="335.404" r="2.923"/>
	<circle id="Oval-Copy-44_25_" fill="#3C96E6" cx="860.282" cy="335.404" r="2.923"/>
	<circle id="Oval-Copy-42_8_" fill="#B0CEEB" cx="891.459" cy="335.404" r="2.923"/>
	<circle id="Oval-Copy-57_27_" fill="#3C96E6" cx="665.428" cy="346.121" r="2.923"/>
	<circle id="Oval-Copy-56_28_" fill="#B0CEEB" cx="681.016" cy="346.121" r="2.923"/>
	<circle id="Oval-Copy-54_34_" fill="#3C96E6" cx="712.193" cy="346.121" r="2.923"/>
	<circle id="Oval-Copy-53_34_" fill="#3C96E6" cx="727.781" cy="346.121" r="2.923"/>
	<circle id="Oval-Copy-52_33_" fill="#3C96E6" cx="743.369" cy="346.121" r="2.923"/>
	<circle id="Oval-Copy-51_55_" fill="#00386C" cx="758.958" cy="346.121" r="2.923"/>
	<circle id="Oval-Copy-50_41_" fill="#3C96E6" cx="774.546" cy="346.121" r="2.923"/>
	<circle id="Oval-Copy-49_44_" fill="#3C96E6" cx="790.134" cy="346.121" r="2.923"/>
	<circle id="Oval-Copy-48_37_" fill="#3C96E6" cx="805.723" cy="346.121" r="2.923"/>
	<circle id="Oval-Copy-47_33_" fill="#3C96E6" cx="821.311" cy="346.121" r="2.923"/>
	<circle id="Oval-Copy-46_29_" fill="#00386C" cx="836.899" cy="346.121" r="2.923"/>
	<circle id="Oval-Copy-45_30_" fill="#3C96E6" cx="852.488" cy="346.121" r="2.923"/>
	<circle id="Oval-Copy-44_24_" fill="#3C96E6" cx="868.076" cy="346.121" r="2.923"/>
	<circle id="Oval-Copy-47_2_" fill="#3C96E6" cx="340.995" cy="276.266" r="2.923"/>
	<circle id="Oval-Copy-45_3_" fill="#E365A6" cx="372.172" cy="276.266" r="2.923"/>
	<circle id="Oval-Copy-46_2_" fill="#3C96E6" cx="348.789" cy="286.983" r="2.923"/>
	<circle id="Oval-Copy-45_2_" fill="#3C96E6" cx="364.378" cy="286.983" r="2.923"/>
	<circle id="Oval-Copy-42_1_" fill="#B0CEEB" cx="411.143" cy="286.983" r="2.923"/>
	<circle id="Oval-Copy-47_1_" fill="#3C96E6" cx="340.995" cy="297.7" r="2.923"/>
	<circle id="Oval-Copy-46_1_" fill="#00386C" cx="356.583" cy="297.7" r="2.923"/>
	<circle id="Oval-Copy-54_33_" fill="#3C96E6" cx="704.398" cy="356.838" r="2.923"/>
	<circle id="Oval-Copy-53_33_" fill="#3C96E6" cx="719.987" cy="356.838" r="2.923"/>
	<circle id="Oval-Copy-56_7_" fill="#3C96E6" cx="517.338" cy="292.536" r="2.923"/>
	<circle id="Oval-Copy-55_10_" fill="#3C96E6" cx="532.927" cy="292.536" r="2.923"/>
	<circle id="Oval-Copy-54_12_" fill="#3C96E6" cx="548.515" cy="292.536" r="2.923"/>
	<circle id="Oval-Copy-53_12_" fill="#3C96E6" cx="564.103" cy="292.536" r="2.923"/>
	<circle id="Oval-Copy-52_5_" fill="#3C96E6" cx="579.692" cy="292.536" r="2.923"/>
	<circle id="Oval-Copy-55_9_" fill="#00386C" cx="540.721" cy="367.555" r="2.923"/>
	<circle id="Oval-Copy-58_1_" fill="#3C96E6" cx="493.956" cy="281.819" r="2.923"/>
	<circle id="Oval-Copy-57_2_" fill="#3C96E6" cx="509.544" cy="281.819" r="2.923"/>
	<circle id="Oval-Copy-56_2_" fill="#3C96E6" cx="525.132" cy="281.819" r="2.923"/>
	<circle id="Oval-Copy-55_4_" fill="#3C96E6" cx="540.721" cy="281.819" r="2.923"/>
	<circle id="Oval-Copy-54_7_" fill="#3C96E6" cx="556.309" cy="281.819" r="2.923"/>
	<circle id="Oval-Copy-53_7_" fill="#3C96E6" cx="571.898" cy="281.819" r="2.923"/>
	<circle id="Oval-Copy-55_3_" fill="#3C96E6" cx="540.721" cy="303.253" r="2.923"/>
	<circle id="Oval-Copy-54_6_" fill="#E365A6" cx="556.309" cy="303.253" r="2.923"/>
	<circle id="Oval-Copy-53_6_" fill="#3C96E6" cx="571.898" cy="303.253" r="2.923"/>
	<circle id="Oval-Copy-55_2_" fill="#3C96E6" cx="532.927" cy="313.97" r="2.923"/>
	<circle id="Oval-Copy-54_5_" fill="#3C96E6" cx="548.515" cy="313.97" r="2.923"/>
	<circle id="Oval-Copy-53_5_" fill="#3C96E6" cx="564.103" cy="313.97" r="2.923"/>
	<circle id="Oval-Copy-52_2_" fill="#3C96E6" cx="579.692" cy="313.97" r="2.923"/>
	<circle id="Oval-Copy-54_4_" fill="#3C96E6" cx="556.309" cy="324.687" r="2.923"/>
	<circle id="Oval-Copy-53_4_" fill="#E6501E" cx="571.898" cy="324.687" r="2.923"/>
	<circle id="Oval-Copy-53_15_" fill="#3C96E6" cx="603.074" cy="292.536" r="2.923"/>
	<circle id="Oval-Copy-53_14_" fill="#3C96E6" cx="610.868" cy="281.819" r="2.923"/>
	<circle id="Oval-Copy-54_13_" fill="#E365A6" cx="595.28" cy="303.253" r="2.923"/>
	<circle id="Oval-Copy-53_13_" fill="#E6501E" cx="610.868" cy="324.687" r="2.923"/>
	<circle id="Oval-Copy-55_1_" fill="#3C96E6" cx="532.927" cy="335.404" r="2.923"/>
	<circle id="Oval-Copy-54_3_" fill="#3C96E6" cx="548.515" cy="335.404" r="2.923"/>
	<circle id="Oval-Copy-53_3_" fill="#3C96E6" cx="564.103" cy="335.404" r="2.923"/>
	<circle id="Oval-Copy-52_1_" fill="#3C96E6" cx="579.692" cy="335.404" r="2.923"/>
	<circle id="Oval-Copy-57_1_" fill="#3C96E6" cx="509.544" cy="346.121" r="2.923"/>
	<circle id="Oval-Copy-56_1_" fill="#B0CEEB" cx="525.132" cy="346.121" r="2.923"/>
	<circle id="Oval-Copy-54_2_" fill="#3C96E6" cx="556.309" cy="346.121" r="2.923"/>
	<circle id="Oval-Copy-53_2_" fill="#3C96E6" cx="571.898" cy="346.121" r="2.923"/>
	<circle id="Oval-Copy-54_1_" fill="#3C96E6" cx="548.515" cy="356.838" r="2.923"/>
	<circle id="Oval-Copy-53_1_" fill="#3C96E6" cx="564.103" cy="356.838" r="2.923"/>
	<circle id="Oval-Copy-51_54_" fill="#3C96E6" cx="751.164" cy="356.838" r="2.923"/>
	<circle id="Oval-Copy-50_40_" fill="#3C96E6" cx="766.752" cy="356.838" r="2.923"/>
	<circle id="Oval-Copy-49_43_" fill="#3C96E6" cx="782.34" cy="356.838" r="2.923"/>
	<circle id="Oval-Copy-48_36_" fill="#3C96E6" cx="797.929" cy="356.838" r="2.923"/>
	<circle id="Oval-Copy-51_53_" fill="#3C96E6" cx="751.164" cy="394.347" r="2.923"/>
	<circle id="Oval-Copy-49_42_" fill="#3C96E6" cx="782.34" cy="394.347" r="2.923"/>
	<circle id="Oval-Copy-48_35_" fill="#3C96E6" cx="797.929" cy="394.347" r="2.923"/>
	<circle id="Oval-Copy-51_52_" fill="#3C96E6" cx="758.958" cy="469.366" r="2.923"/>
	<circle id="Oval-Copy-51_51_" fill="#3C96E6" cx="758.958" cy="383.63" r="2.923"/>
	<circle id="Oval-Copy-50_39_" fill="#3C96E6" cx="774.546" cy="383.63" r="2.923"/>
	<circle id="Oval-Copy-49_40_" fill="#3C96E6" cx="790.134" cy="383.63" r="2.923"/>
	<circle id="Oval-Copy-51_50_" fill="#3C96E6" cx="758.958" cy="405.064" r="2.923"/>
	<circle id="Oval-Copy-49_35_" fill="#3C96E6" cx="790.134" cy="405.064" r="2.923"/>
	<circle id="Oval-Copy-51_49_" fill="#3C96E6" cx="751.164" cy="415.781" r="2.923"/>
	<circle id="Oval-Copy-51_48_" fill="#3C96E6" cx="735.575" cy="415.781" r="2.923"/>
	<circle id="Oval-Copy-50_37_" fill="#3C96E6" cx="766.752" cy="415.781" r="2.923"/>
	<circle id="Oval-Copy-49_34_" fill="#3C96E6" cx="782.34" cy="415.781" r="2.923"/>
	<circle id="Oval-Copy-48_32_" fill="#3C96E6" cx="797.929" cy="415.781" r="2.923"/>
	<circle id="Oval-Copy-51_47_" fill="#3C96E6" cx="758.958" cy="426.498" r="2.923"/>
	<circle id="Oval-Copy-49_33_" fill="#3C96E6" cx="790.134" cy="426.498" r="2.923"/>
	<circle id="Oval-Copy-51_46_" fill="#3C96E6" cx="751.164" cy="437.215" r="2.923"/>
	<circle id="Oval-Copy-50_35_" fill="#3C96E6" cx="766.752" cy="437.215" r="2.923"/>
	<circle id="Oval-Copy-51_45_" fill="#00386C" cx="758.958" cy="447.932" r="2.923"/>
	<circle id="Oval-Copy-51_44_" fill="#3C96E6" cx="751.164" cy="458.649" r="2.923"/>
	<circle id="Oval-Copy-50_33_" fill="#3C96E6" cx="766.752" cy="458.649" r="2.923"/>
	<circle id="Oval-Copy-51_10_" fill="#3C96E6" cx="403.349" cy="311.047" r="2.923"/>
	<circle id="Oval-Copy-49_5_" fill="#3C96E6" cx="434.525" cy="311.047" r="2.923"/>
	<circle id="Oval-Copy-48_2_" fill="#3C96E6" cx="450.114" cy="311.047" r="2.923"/>
	<circle id="Oval-Copy-51_9_" fill="#3C96E6" cx="411.143" cy="386.066" r="2.923"/>
	<circle id="Oval-Copy-51_8_" fill="#3C96E6" cx="411.143" cy="300.33" r="2.923"/>
	<circle id="Oval-Copy-50_4_" fill="#3C96E6" cx="426.731" cy="300.33" r="2.923"/>
	<circle id="Oval-Copy-49_4_" fill="#3C96E6" cx="442.319" cy="300.33" r="2.923"/>
	<circle id="Oval-Copy-51_7_" fill="#3C96E6" cx="411.143" cy="321.764" r="2.923"/>
	<circle id="Oval-Copy-49_3_" fill="#3C96E6" cx="442.319" cy="321.764" r="2.923"/>
	<circle id="Oval-Copy-51_6_" fill="#3C96E6" cx="403.349" cy="332.481" r="2.923"/>
	<circle id="Oval-Copy-51_5_" fill="#3C96E6" cx="387.76" cy="332.481" r="2.923"/>
	<circle id="Oval-Copy-50_3_" fill="#3C96E6" cx="418.937" cy="332.481" r="2.923"/>
	<circle id="Oval-Copy-49_2_" fill="#3C96E6" cx="434.525" cy="332.481" r="2.923"/>
	<circle id="Oval-Copy-48_1_" fill="#3C96E6" cx="450.114" cy="332.481" r="2.923"/>
	<circle id="Oval-Copy-51_4_" fill="#3C96E6" cx="411.143" cy="343.198" r="2.923"/>
	<circle id="Oval-Copy-49_1_" fill="#3C96E6" cx="442.319" cy="343.198" r="2.923"/>
	<circle id="Oval-Copy-51_3_" fill="#3C96E6" cx="403.349" cy="353.915" r="2.923"/>
	<circle id="Oval-Copy-50_2_" fill="#3C96E6" cx="418.937" cy="353.915" r="2.923"/>
	<circle id="Oval-Copy-51_2_" fill="#00386C" cx="411.143" cy="364.632" r="2.923"/>
	<circle id="Oval-Copy-51_1_" fill="#3C96E6" cx="403.349" cy="375.349" r="2.923"/>
	<circle id="Oval-Copy-50_1_" fill="#3C96E6" cx="418.937" cy="375.349" r="2.923"/>
	<circle id="Oval-Copy-45_29_" fill="#3C96E6" cx="844.694" cy="356.838" r="2.923"/>
</g>
</svg>
